<?xml version="1.0" standalone="no"?>
<!DOCTYPE svg PUBLIC "-//W3C//DTD SVG 20010904//EN"
 "http://www.w3.org/TR/2001/REC-SVG-20010904/DTD/svg10.dtd">
<svg version="1.0" xmlns="http://www.w3.org/2000/svg"
 width="1372.000000pt" height="1372.000000pt" viewBox="0 0 1372.000000 1372.000000"
 preserveAspectRatio="xMidYMid meet">
<metadata>
Created by potrace 1.11, written by Peter Selinger 2001-2013
</metadata>
<g transform="translate(0.000000,1372.000000) scale(0.100000,-0.100000)"
fill="#000000" stroke="none">
<path d="M6555 13713 c-249 -11 -627 -57 -880 -108 -951 -193 -1787 -649
-2446 -1333 -787 -817 -1293 -1862 -1503 -3107 -99 -588 -116 -908 -116 -2234
0 -1143 7 -1366 61 -1846 188 -1684 837 -3034 1898 -3944 703 -603 1528 -965
2486 -1090 298 -39 424 -46 810 -46 474 0 730 22 1117 96 1283 243 2339 958
3083 2084 623 944 959 2093 1035 3540 13 249 13 2163 0 2426 -52 1054 -258
1931 -635 2716 -442 919 -1121 1684 -1923 2166 -832 501 -1835 729 -2987 680z
m875 -1618 c1428 -138 2514 -729 3371 -1835 825 -1064 1239 -2511 1205 -4215
-36 -1846 -502 -3260 -1428 -4335 -592 -687 -1339 -1166 -2193 -1409 -931
-265 -2094 -267 -3025 -5 -789 222 -1451 617 -2030 1210 -868 888 -1390 2098
-1560 3609 -42 375 -53 611 -54 1085 -1 447 6 599 40 935 129 1277 543 2355
1235 3215 440 546 935 952 1524 1250 587 297 1237 464 1985 510 198 12 737 4
930 -15z"/>
<path d="M6627 10839 c-981 -59 -1774 -466 -2382 -1223 -355 -443 -628 -1000
-805 -1641 -220 -805 -283 -1881 -169 -2905 123 -1107 478 -2032 1037 -2701
544 -652 1220 -1027 2053 -1140 220 -29 636 -37 859 -15 910 87 1610 455 2188
1149 549 659 900 1553 1032 2625 71 578 84 1285 35 1846 -81 921 -312 1698
-696 2341 -380 636 -885 1110 -1465 1373 -504 229 -1075 328 -1687 291z m2030
-2696 c-4 -82 -10 -238 -13 -348 l-7 -200 -138 -365 -137 -365 -841 -3 -841
-2 0 -173 1 -172 381 -275 c209 -151 449 -324 532 -385 84 -60 255 -184 381
-275 321 -232 424 -337 490 -501 69 -174 74 -297 41 -1139 -23 -622 -26 -659
-49 -737 -54 -184 -188 -325 -366 -386 l-66 -22 -1397 -3 -1397 -2 -5 32 c-3
18 -12 267 -21 553 -8 286 -17 537 -19 557 l-4 38 911 2 912 3 0 214 0 213
-565 390 c-311 214 -640 441 -732 503 -91 63 -200 142 -241 175 -238 191 -338
402 -361 760 -11 162 -46 1204 -46 1359 -1 170 18 260 77 381 49 99 160 211
256 258 132 64 35 60 1726 61 l1544 1 -6 -147z"/>
</g>
</svg>
